<?xml version="1.0" ?><svg data-name="Layer 1" id="Layer_1" viewBox="0 0 32 32" xmlns="http://www.w3.org/2000/svg"><path d="M16,27a6,6,0,1,1,6-6A6,6,0,0,1,16,27Zm0-10a4,4,0,1,0,4,4A4,4,0,0,0,16,17Z"/><path d="M24,30a1,1,0,0,1-.71-.29l-4-4a1,1,0,0,1,1.42-1.42l4,4a1,1,0,0,1,0,1.42A1,1,0,0,1,24,30Z"/><path d="M7,25A7,7,0,0,1,7,11a1,1,0,0,1,0,2A5,5,0,0,0,7,23a1,1,0,0,1,0,2Z"/><path d="M25,25a1,1,0,0,1,0-2,5,5,0,0,0,0-10,1,1,0,0,1,0-2,7,7,0,0,1,0,14Z"/><path d="M25,13a1,1,0,0,1-1-1A8,8,0,0,0,8,12a1,1,0,0,1-2,0,10,10,0,0,1,20,0A1,1,0,0,1,25,13Z"/><path d="M9,25H7a1,1,0,0,1,0-2H9a1,1,0,0,1,0,2Z"/><path d="M25,25H23a1,1,0,0,1,0-2h2a1,1,0,0,1,0,2Z"/></svg>